<svg xmlns="http://www.w3.org/2000/svg" xml:space="preserve" style="fill-rule:evenodd;clip-rule:evenodd;stroke-linejoin:round;stroke-miterlimit:2" viewBox="0 0 580 212"><path d="M560 166h-24v-16.5c0-5.243-4.257-9.5-9.5-9.5s-9.5 4.257-9.5 9.5v52c0 5.243 4.257 9.5 9.5 9.5s9.5-4.257 9.5-9.5V185h24v16.5c0 5.243 4.257 9.5 9.5 9.5s9.5-4.257 9.5-9.5v-52c0-5.243-4.257-9.5-9.5-9.5s-9.5 4.257-9.5 9.5V166ZM502.602 200.602A35.497 35.497 0 0 1 477.5 211c-19.593 0-35.5-15.907-35.5-35.5s15.907-35.5 35.5-35.5c9.415 0 18.445 3.74 25.102 10.398 3.672 3.671 3.672 9.633 0 13.304-3.671 3.671-9.633 3.671-13.304 0a16.685 16.685 0 0 0-11.798-4.887c-9.209 0-16.685 7.476-16.685 16.685s7.476 16.685 16.685 16.685c4.424 0 8.667-1.757 11.796-4.885l.002-.002c3.671-3.671 9.633-3.671 13.304 0 3.672 3.671 3.672 9.633 0 13.304ZM411 181v-31.5c0-5.243 4.257-9.5 9.5-9.5s9.5 4.257 9.5 9.5V182c0 .424-.028.841-.082 1.251-1.151 15.792-14.33 28.249-30.418 28.249-15.374 0-28.091-11.375-30.195-26.17A8.994 8.994 0 0 1 369 183v-34c0-4.967 4.033-9 9-9s9 4.033 9 9v32c0 6.623 5.377 12 12 12s12-5.377 12-12Z" style="fill:#f2a900" transform="translate(-1 -.221)"/><path d="M342.36 140c19.869 0 36 16.131 36 36s-16.131 36-36 36c-19.868 0-36-16.131-36-36s16.132-36 36-36Zm0 19.08c9.339 0 16.92 7.582 16.92 16.92 0 9.338-7.581 16.92-16.92 16.92-9.338 0-16.92-7.582-16.92-16.92 0-9.338 7.582-16.92 16.92-16.92Z" style="fill:#f2a900" transform="translate(-17.105 1.723) scale(.98611)"/><path d="M271 141h-52.85c-4.967 0-9 4.033-9 9s4.033 9 9 9H237v42c0 4.967 4.033 9 9 9s9-4.033 9-9v-42h16c4.967 0 9-4.033 9-9s-4.033-9-9-9Z" style="fill:#f2a900" transform="translate(-1 -.221)"/><path d="M498.424 53.936C496.438 38.983 507.034 27.243 520 21.8c15.403-6.466 40.582-4.413 52.939 8.089 5.806 5.874-.59 15.162-6.678 17.156-5.035 1.649-9.699-3.24-14.31-4.232-4.518-.971-9.129-1.781-13.75-1.765-4.164.014-16.963.581-17.513 8.124-.529 7.25 11.18 7.77 16.012 8.728 18.151 3.598 43.626 8.821 43.948 32.084.453 32.778-37.926 38.599-63.299 32.631-6.165-1.45-16.362-6.484-19.252-12.66-3.056-6.532 1.928-16.712 9.99-15.767 6.51.762 5.779 2.421 10.098 3.893 9.928 3.382 11.9 4.335 23.215 3.719 4.132-.225 14.705-.405 16.3-6.8 3.422-13.722-20.348-14.25-26.6-15.9-13.507-3.565-31.792-7.892-32.676-25.164Z" style="fill:#5c4738" transform="translate(-1 -.221)"/><path d="M500 35.5c0-4.691-4.856-8.5-10.837-8.5h-35.326C447.856 27 443 30.809 443 35.5s4.856 8.5 10.837 8.5h35.326C495.144 44 500 40.191 500 35.5Z" style="fill:#f2a900" transform="matrix(.46709 -.91614 1.16807 .59553 212.697 438.148)"/><path d="M430.008 19a9.939 9.939 0 0 1 5.299 1.525 9.94 9.94 0 0 1 3.193 3.208A9.945 9.945 0 0 1 440 29v84c0 5.519-4.481 10-10 10s-10-4.481-10-10V67.806s-24.675 47.127-25.799 48.694a9.947 9.947 0 0 1-3.391 2.973A9.95 9.95 0 0 1 385.5 121a9.95 9.95 0 0 1-5.31-1.527 9.947 9.947 0 0 1-3.391-2.973C375.675 114.933 351 67.806 351 67.806V113c0 5.519-4.481 10-10 10s-10-4.481-10-10V29c0-1.932.549-3.737 1.5-5.267a9.94 9.94 0 0 1 3.193-3.208A9.939 9.939 0 0 1 340.992 19H341c.739.002 1.476.081 2.197.242a10.08 10.08 0 0 1 2.935 1.175l.001.001a9.944 9.944 0 0 1 3.66 3.819L385.5 88.919l35.707-64.682a9.944 9.944 0 0 1 3.66-3.819A9.95 9.95 0 0 1 430 19h.008Z" style="fill:#5c4738" transform="translate(-1 -.221)"/><path d="M342.36 140c19.869 0 36 16.131 36 36s-16.131 36-36 36c-19.868 0-36-16.131-36-36s16.132-36 36-36Zm0 14.76c11.723 0 21.24 9.517 21.24 21.24 0 11.723-9.517 21.24-21.24 21.24-11.722 0-21.24-9.517-21.24-21.24 0-11.723 9.518-21.24 21.24-21.24Z" style="fill:#5c4738" transform="translate(-257.796 -195.165) scale(1.51389)"/><path d="M12 18h.037c2.135.007 4.128.624 5.813 1.685a10.943 10.943 0 0 1 3.786 4.009l.013.023c.074.134.144.27.213.407L96 170.259l74.138-146.135c.069-.137.14-.273.213-.407l.013-.023a10.935 10.935 0 0 1 3.786-4.009A10.943 10.943 0 0 1 179.963 18H180.013c.46 0 .922.029 1.383.088l.04.005.033.004.037.005c1.617.222 3.123.796 4.437 1.642a10.914 10.914 0 0 1 3.158 3.079A10.942 10.942 0 0 1 191 28.967V200c0 6.071-4.929 11-11 11s-11-4.929-11-11V74.994l-62.904 123.99c-1.982 3.908-5.986 6.124-10.096 6.021-4.11.103-8.114-2.113-10.096-6.021L23 74.994V200c0 6.071-4.929 11-11 11s-11-4.929-11-11V28.967a10.942 10.942 0 0 1 1.899-6.144 10.914 10.914 0 0 1 3.158-3.079 10.935 10.935 0 0 1 4.437-1.642l.037-.005.033-.004.04-.005c.461-.059.923-.088 1.383-.088H12Z" style="fill:#5c4738" transform="translate(-1 -.221)"/></svg>